<svg xmlns="http://www.w3.org/2000/svg" xmlns:xlink="http://www.w3.org/1999/xlink" width="278.488" height="329.889">
	<g id="robot">
	<rect id="a" x="-70.719" y="37.905" width="6.397" height="84.112" transform="matrix(-.875 .485 .485 .875 0 0)" rx="3.16"  stroke-width="7.2"/><rect x="-193.054" y="204.565" width="40.901" height="125.324" rx="20.309" transform="scale(-1 1)"  stroke-width="7.2"/><rect rx="20.309" height="125.324" width="40.901" y="107.565"  stroke-width="7.2"/><rect x="85" y="204.565" width="40.901" height="125.324" rx="20.309"  stroke-width="7.2"/><path d="M139.027 19.445a91 84 0 0 0-90.996 83.9h181.99a91 84 0 0 0-90.993-83.9zm-42 35.4c4.155 0 7.6 3.445 7.6 7.6 0 4.154-3.445 7.6-7.6 7.6-4.155 0-7.6-3.446-7.6-7.6 0-4.155 3.445-7.6 7.6-7.6zm84 0c4.155 0 7.6 3.445 7.6 7.6 0 4.154-3.445 7.6-7.6 7.6-4.155 0-7.6-3.446-7.6-7.6 0-4.155 3.445-7.6 7.6-7.6zm-133 55.7v131.9c0 12.188 9.812 22 22 22h138c12.188 0 22-9.812 22-22v-131.9h-182z" /><use xlink:href="#a" transform="matrix(-1 0 0 1 274.285 0)" width="100%" height="100%"/>
	<rect x="237.587" y="107.565" width="40.901" height="125.324" rx="20.309" id="armRight" stroke-width="7.2" />
	</g>
</svg>